<?xml version="1.0" encoding="utf-8"?>
<!-- Generator: Adobe Illustrator 16.0.0, SVG Export Plug-In . SVG Version: 6.00 Build 0)  -->
<!DOCTYPE svg PUBLIC "-//W3C//DTD SVG 1.1//EN" "http://www.w3.org/Graphics/SVG/1.1/DTD/svg11.dtd">
<svg version="1.1" xmlns="http://www.w3.org/2000/svg" xmlns:xlink="http://www.w3.org/1999/xlink" x="0px" y="0px" width="500px"
	 height="500px" viewBox="0 0 500 500" enable-background="new 0 0 500 500" xml:space="preserve">
<g id="Layer_2">
</g>
<g id="Layer_3">
	<g id="Layer_4" opacity="0.2">
	</g>
</g>
<g id="Layer_1">
	<g>
		<circle fill="#5851DB" cx="250" cy="250" r="225.5"/>
	</g>
	<g>
		<g>
			<g>
				<linearGradient id="SVGID_2_" gradientUnits="userSpaceOnUse" x1="187.9023" y1="435.0547" x2="365.7969" y2="-98.6276">
					<stop  offset="0" style="stop-color:#FFDC80"/>
					<stop  offset="0.2581" style="stop-color:#F77737"/>
					<stop  offset="0.4946" style="stop-color:#FD1D1D"/>
					<stop  offset="0.7581" style="stop-color:#833AB4"/>
					<stop  offset="1" style="stop-color:#405DE6"/>
				</linearGradient>
				<path fill="url(#SVGID_2_)" d="M194.933,384.151c-18.187,0-32.929,14.243-32.929,31.813c0,0.375,0.015,0.745,0.029,1.116h65.799
					c0.013-0.371,0.029-0.741,0.029-1.116C227.861,398.394,213.118,384.151,194.933,384.151z"/>
				<path fill="#FFFFFF" d="M197.279,389.883c6.641,0,12.743,2.215,17.571,5.916c-5.159-5.264-12.456-8.552-20.551-8.552
					c-15.634,0-28.307,12.244-28.307,27.347c0,0.322,0.013,0.64,0.024,0.959h3.013C169.929,401.231,182.229,389.883,197.279,389.883
					z"/>
				<linearGradient id="SVGID_4_" gradientUnits="userSpaceOnUse" x1="293.1162" y1="470.126" x2="471.0107" y2="-63.5563">
					<stop  offset="0" style="stop-color:#FFDC80"/>
					<stop  offset="0.2581" style="stop-color:#F77737"/>
					<stop  offset="0.4946" style="stop-color:#FD1D1D"/>
					<stop  offset="0.7581" style="stop-color:#833AB4"/>
					<stop  offset="1" style="stop-color:#405DE6"/>
				</linearGradient>
				<path fill="url(#SVGID_4_)" d="M311.838,384.151c-18.187,0-32.93,14.243-32.93,31.813c0,0.375,0.017,0.745,0.03,1.116h65.799
					c0.014-0.371,0.029-0.741,0.029-1.116C344.767,398.394,330.023,384.151,311.838,384.151z"/>
				<linearGradient id="SVGID_6_" gradientUnits="userSpaceOnUse" x1="195.1045" y1="437.4561" x2="373.0007" y2="-96.2313">
					<stop  offset="0" style="stop-color:#FFDC80"/>
					<stop  offset="0.2581" style="stop-color:#F77737"/>
					<stop  offset="0.4946" style="stop-color:#FD1D1D"/>
					<stop  offset="0.7581" style="stop-color:#833AB4"/>
					<stop  offset="1" style="stop-color:#405DE6"/>
				</linearGradient>
				<path fill="url(#SVGID_6_)" d="M425.248,130.934h-11.917c-2.209,0-4,1.791-4,4v10.37c0,2.729-2.221,4.95-4.95,4.95
					s-4.949-2.22-4.949-4.95v-10.37c0-2.209-1.791-4-4-4h-11.917c-2.209,0-4,1.791-4,4v10.37c0,9.819,5.722,18.325,14.005,22.364
					v64.419c0,5.361-4.361,9.723-9.723,9.723h-20.335v-36.977c0-27.661-22.424-50.084-50.084-50.084h-52.479V134.82
					c3.991-2.411,6.674-6.81,6.674-11.853c0-7.631-6.117-13.813-13.656-13.813c-7.547,0-13.659,6.183-13.659,13.813
					c0,5.026,2.664,9.414,6.635,11.83v19.951h-51.865c-27.66,0-50.084,22.423-50.084,50.084v32.813h-13.951
					c-17.339,0-31.445,14.106-31.445,31.446v64.419c-8.284,4.039-14.006,12.545-14.006,22.365v10.37c0,2.209,1.791,4,4,4h11.917
					c2.209,0,4-1.791,4-4v-10.37c0-2.729,2.221-4.95,4.95-4.95c2.729,0,4.949,2.22,4.949,4.95v10.37c0,2.209,1.791,4,4,4h11.917
					c2.209,0,4-1.791,4-4v-10.37c0-9.819-5.722-18.325-14.005-22.364v-64.419c0-5.361,4.361-9.723,9.723-9.723h13.951v63.814
					c0,27.661,22.424,50.084,50.084,50.084h118.352c27.66,0,50.084-22.423,50.084-50.084v-59.65h20.335
					c17.339,0,31.445-14.106,31.445-31.446v-64.419c8.284-4.039,14.006-12.545,14.006-22.365v-10.37
					C429.248,132.725,427.457,130.934,425.248,130.934z"/>
				<linearGradient id="SVGID_7_" gradientUnits="userSpaceOnUse" x1="171.0928" y1="429.4512" x2="348.9886" y2="-104.2349">
					<stop  offset="0" style="stop-color:#FFDC80"/>
					<stop  offset="0.2581" style="stop-color:#F77737"/>
					<stop  offset="0.4946" style="stop-color:#FD1D1D"/>
					<stop  offset="0.7581" style="stop-color:#833AB4"/>
					<stop  offset="1" style="stop-color:#405DE6"/>
				</linearGradient>
				<path fill="url(#SVGID_7_)" d="M247.97,64.571v-0.002c1.959-0.206,3.937-0.302,5.941-0.302
					c32.057,0.058,57.991,26.28,58.051,58.694c0,1.982-0.096,3.936-0.289,5.856c-0.403,4.118,2.563,7.776,6.632,8.189
					c0.248,0.024,0.497,0.034,0.743,0.034c3.758,0.005,6.97-2.874,7.355-6.738c0.235-2.415,0.355-4.866,0.354-7.341
					c-0.008-40.683-32.612-73.657-72.846-73.662c-2.512,0-4.992,0.13-7.44,0.379c-4.069,0.427-7.025,4.096-6.612,8.208
					C240.273,61.994,243.903,64.986,247.97,64.571z"/>
				<linearGradient id="SVGID_8_" gradientUnits="userSpaceOnUse" x1="161.9609" y1="426.4028" x2="339.8546" y2="-107.2768">
					<stop  offset="0" style="stop-color:#FFDC80"/>
					<stop  offset="0.2581" style="stop-color:#F77737"/>
					<stop  offset="0.4946" style="stop-color:#FD1D1D"/>
					<stop  offset="0.7581" style="stop-color:#833AB4"/>
					<stop  offset="1" style="stop-color:#405DE6"/>
				</linearGradient>
				<path fill="url(#SVGID_8_)" d="M247.801,94.266c1.964-0.428,4.005-0.655,6.115-0.655c16.021,0.034,28.989,13.147,29.021,29.356
					c0,1.85-0.166,3.649-0.49,5.39c-0.751,4.065,1.898,7.975,5.917,8.733c0.459,0.087,0.918,0.125,1.372,0.125
					c3.487,0,6.593-2.512,7.259-6.107c0.488-2.647,0.744-5.374,0.739-8.141c-0.008-24.483-19.614-44.31-43.817-44.317
					c-3.161-0.003-6.255,0.34-9.239,0.988c-3.99,0.874-6.53,4.851-5.668,8.896C239.866,92.575,243.805,95.142,247.801,94.266z"/>
				<path fill="#FFFFFF" d="M314.369,389.883c6.641,0,12.743,2.215,17.571,5.916c-5.159-5.264-12.456-8.552-20.551-8.552
					c-15.634,0-28.307,12.244-28.307,27.347c0,0.322,0.013,0.64,0.024,0.959h3.013C287.019,401.231,299.318,389.883,314.369,389.883
					z"/>
			</g>
			<circle fill="#FFFFFF" cx="254.203" cy="264.008" r="57.505"/>
			<path fill="#F56040" d="M286.646,246.626c-2.705,6.4-9.042,10.891-16.427,10.891c-9.845,0-17.826-7.981-17.826-17.827
				c0-4.792,1.894-9.138,4.97-12.341c-1.043-0.089-2.095-0.145-3.16-0.145c-20.326,0-36.804,16.477-36.804,36.803
				s16.478,36.803,36.804,36.803s36.803-16.477,36.803-36.803C291.006,257.72,289.426,251.803,286.646,246.626z"/>
			<circle fill="#FFFFFF" cx="321.975" cy="193.687" r="17.827"/>
		</g>
	</g>
	<g>
		<path fill="#FFFFFF" d="M189.838,356.258c0,0-0.298-0.001-0.876-0.003c-0.579-0.021-1.436,0.053-2.555-0.106
			c-2.232-0.2-5.593-0.792-9.338-2.9c-0.96-0.482-1.865-1.158-2.847-1.831c-0.911-0.755-1.909-1.517-2.788-2.481
			c-1.826-1.854-3.507-4.186-4.786-6.955c-1.27-2.768-2.098-5.986-2.238-9.439c-0.136-3.291-0.185-6.696-0.287-10.279
			c-0.187-7.152-0.389-14.901-0.517-23.097c-0.146-8.195-0.332-16.838-0.403-25.778c-0.078-8.94-0.247-18.179-0.259-27.567
			c-0.035-9.388-0.069-18.924-0.104-28.461c0.017-4.768,0.032-9.536,0.049-14.286l0.014-3.559l0.003-0.888l0.002-0.444l0.026-0.591
			l0.096-1.771c0.038-0.601,0.181-1.358,0.274-2.028l0.164-1.033l0.245-0.962c0.177-0.636,0.31-1.286,0.528-1.907l0.686-1.854
			c1.033-2.417,2.344-4.711,3.994-6.729c1.682-1.985,3.584-3.765,5.715-5.203c2.15-1.398,4.439-2.568,6.86-3.318
			c2.419-0.711,4.902-1.226,7.386-1.225l0.927-0.035l0.839,0.008l1.665,0.019c1.108,0.012,2.211,0.024,3.309,0.037
			c2.196,0.032,4.37,0.064,6.521,0.096c4.303,0.079,8.513,0.157,12.61,0.232c8.195,0.129,15.943,0.327,23.097,0.517
			c7.152,0.165,13.708,0.38,19.52,0.575c5.812,0.213,10.878,0.398,15.05,0.551c4.173,0.15,7.451,0.336,9.686,0.434
			c2.235,0.106,3.428,0.163,3.428,0.163s-1.192,0.057-3.428,0.163c-2.234,0.098-5.513,0.283-9.686,0.434
			c-4.172,0.153-9.238,0.338-15.05,0.551c-5.812,0.194-12.367,0.41-19.52,0.575c-7.153,0.19-14.901,0.388-23.097,0.517
			c-8.165,0.141-16.776,0.29-25.684,0.444c-1.998,0.032-3.965,0.51-5.877,1.107c-1.912,0.636-3.701,1.616-5.382,2.753
			c-1.663,1.177-3.128,2.624-4.421,4.21c-1.288,1.598-2.295,3.411-3.097,5.307l-0.525,1.455c-0.171,0.487-0.261,1-0.399,1.497
			l-0.191,0.75l-0.102,0.716c-0.061,0.5-0.174,0.901-0.208,1.479l-0.083,1.772l-0.01,0.222l-0.006,0.111
			c0.001-0.029-0.008,0.222,0-0.038l0.002,0.444l0.003,0.888l0.014,3.559c0.017,4.75,0.032,9.518,0.049,14.286
			c-0.035,9.537-0.069,19.073-0.104,28.461c-0.012,9.388-0.181,18.626-0.259,27.567c-0.071,8.94-0.258,17.583-0.403,25.778
			c-0.128,8.196-0.33,15.944-0.517,23.097c-0.091,3.57-0.177,6.992-0.26,10.247c-0.074,3.07,0.474,6.001,1.462,8.587
			c0.991,2.591,2.414,4.815,3.96,6.678c0.745,0.963,1.62,1.74,2.421,2.522c0.871,0.699,1.678,1.411,2.551,1.937
			c3.4,2.257,6.592,3.21,8.756,3.592c1.082,0.262,1.952,0.271,2.523,0.346C189.541,356.229,189.838,356.258,189.838,356.258z"/>
	</g>
</g>
</svg>
